<svg xmlns="http://www.w3.org/2000/svg" xmlns:xlink="http://www.w3.org/1999/xlink" height="368" version="1.1" width="250" style="overflow: hidden; position: relative;">
	<rect x="82" y="327" width="11" height="11" r="0" rx="0" ry="0" fill="none" stroke="#000088" style=""/>
	<rect x="5" y="327" width="25" height="11" r="0" rx="0" ry="0" fill="#000088" stroke="none" opacity="0.15" style="opacity: 0.15;">
		<title>-11: 1</title>
	</rect>
	<rect x="5" y="316" width="25" height="11" r="0" rx="0" ry="0" fill="#000088" stroke="none" opacity="0.05" style="opacity: 0.05;">
		<title>-10: undefined</title>
	</rect>
	<rect x="5" y="305" width="25" height="11" r="0" rx="0" ry="0" fill="#000088" stroke="none" opacity="0.05" style="opacity: 0.05;">
		<title>-9: undefined</title>
	</rect>
	<rect x="5" y="294" width="25" height="11" r="0" rx="0" ry="0" fill="#000088" stroke="none" opacity="0.05" style="opacity: 0.05;">
		<title>-8: undefined</title>
	</rect>
	<rect x="82" y="283" width="11" height="11" r="0" rx="0" ry="0" fill="none" stroke="#000088" style=""/>
	<rect x="5" y="283" width="25" height="11" r="0" rx="0" ry="0" fill="#000088" stroke="none" opacity="0.15" style="opacity: 0.15;">
		<title>-7: 1</title>
	</rect>
	<rect x="82" y="272" width="11" height="11" r="0" rx="0" ry="0" fill="none" stroke="#000088" style=""/>
	<rect x="5" y="272" width="25" height="11" r="0" rx="0" ry="0" fill="#000088" stroke="none" opacity="0.15" style="opacity: 0.15;">
		<title>-6: 1</title>
	</rect>
	<rect x="82" y="261" width="11" height="11" r="0" rx="0" ry="0" fill="none" stroke="#000088" style=""/>
	<rect x="5" y="261" width="25" height="11" r="0" rx="0" ry="0" fill="#000088" stroke="none" opacity="0.15" style="opacity: 0.15;">
		<title>-5: 1</title>
	</rect>
	<rect x="5" y="250" width="25" height="11" r="0" rx="0" ry="0" fill="#000088" stroke="none" opacity="0.05" style="opacity: 0.05;">
		<title>-4: undefined</title>
	</rect>
	<rect x="82" y="239" width="22" height="11" r="0" rx="0" ry="0" fill="none" stroke="#000088" style=""/>
	<rect x="5" y="239" width="25" height="11" r="0" rx="0" ry="0" fill="#000088" stroke="none" opacity="0.3" style="opacity: 0.3;">
		<title>-3: 2</title>
	</rect>
	<rect x="82" y="228" width="11" height="11" r="0" rx="0" ry="0" fill="none" stroke="#000088" style=""/>
	<rect x="5" y="228" width="25" height="11" r="0" rx="0" ry="0" fill="#000088" stroke="none" opacity="0.15" style="opacity: 0.15;">
		<title>-2: 1</title>
	</rect>
	<rect x="82" y="217" width="44" height="11" r="0" rx="0" ry="0" fill="none" stroke="#000088" style=""/>
	<rect x="5" y="217" width="25" height="11" r="0" rx="0" ry="0" fill="#000088" stroke="none" opacity="0.6" style="opacity: 0.6;">
		<title>-1: 4</title>
	</rect>
	<rect x="82" y="206" width="55" height="11" r="0" rx="0" ry="0" fill="none" stroke="#000088" style=""/>
	<rect x="5" y="206" width="25" height="11" r="0" rx="0" ry="0" fill="#000088" stroke="none" opacity="0.75" style="opacity: 0.75;">
		<title>0: 5</title>
	</rect>
	<rect x="82" y="195" width="77" height="11" r="0" rx="0" ry="0" fill="none" stroke="#000088" style=""/>
	<rect x="5" y="195" width="25" height="11" r="0" rx="0" ry="0" fill="#000088" stroke="none" opacity="1.05" style="opacity: 1.05;">
		<title>1: 7</title>
	</rect>
	<rect x="82" y="184" width="66" height="11" r="0" rx="0" ry="0" fill="none" stroke="#000088" style=""/>
	<rect x="5" y="184" width="25" height="11" r="0" rx="0" ry="0" fill="#000088" stroke="none" opacity="0.8999999999999999" style="opacity: 0.8999999999999999;">
		<title>2: 6</title>
	</rect>
	<rect x="82" y="173" width="55" height="11" r="0" rx="0" ry="0" fill="none" stroke="#000088" style=""/>
	<rect x="5" y="173" width="25" height="11" r="0" rx="0" ry="0" fill="#000088" stroke="none" opacity="0.75" style="opacity: 0.75;">
		<title>3: 5</title>
	</rect>
	<rect x="82" y="162" width="33" height="11" r="0" rx="0" ry="0" fill="none" stroke="#000088" style=""/>
	<rect x="5" y="162" width="25" height="11" r="0" rx="0" ry="0" fill="#000088" stroke="none" opacity="0.44999999999999996" style="opacity: 0.44999999999999996;">
		<title>4: 3</title>
	</rect>
	<rect x="82" y="151" width="55" height="11" r="0" rx="0" ry="0" fill="none" stroke="#000088" style=""/>
	<rect x="5" y="151" width="25" height="11" r="0" rx="0" ry="0" fill="#000088" stroke="none" opacity="0.75" style="opacity: 0.75;">
		<title>5: 5</title>
	</rect>
	<rect x="82" y="140" width="11" height="11" r="0" rx="0" ry="0" fill="none" stroke="#000088" style=""/>
	<rect x="5" y="140" width="25" height="11" r="0" rx="0" ry="0" fill="#000088" stroke="none" opacity="0.15" style="opacity: 0.15;">
		<title>6: 1</title>
	</rect>
	<rect x="82" y="129" width="33" height="11" r="0" rx="0" ry="0" fill="none" stroke="#000088" style=""/>
	<rect x="5" y="129" width="25" height="11" r="0" rx="0" ry="0" fill="#000088" stroke="none" opacity="0.44999999999999996" style="opacity: 0.44999999999999996;">
		<title>7: 3</title>
	</rect>
	<rect x="82" y="118" width="55" height="11" r="0" rx="0" ry="0" fill="none" stroke="#000088" style=""/>
	<rect x="5" y="118" width="25" height="11" r="0" rx="0" ry="0" fill="#000088" stroke="none" opacity="0.75" style="opacity: 0.75;">
		<title>8: 5</title>
	</rect>
	<rect x="82" y="107" width="11" height="11" r="0" rx="0" ry="0" fill="none" stroke="#000088" style=""/>
	<rect x="5" y="107" width="25" height="11" r="0" rx="0" ry="0" fill="#000088" stroke="none" opacity="0.15" style="opacity: 0.15;">
		<title>9: 1</title>
	</rect>
	<rect x="5" y="96" width="25" height="11" r="0" rx="0" ry="0" fill="#000088" stroke="none" opacity="0.05" style="opacity: 0.05;">
		<title>10: undefined</title>
	</rect>
	<rect x="5" y="85" width="25" height="11" r="0" rx="0" ry="0" fill="#000088" stroke="none" opacity="0.05" style="opacity: 0.05;">
		<title>11: undefined</title>
	</rect>
	<rect x="5" y="74" width="25" height="11" r="0" rx="0" ry="0" fill="#000088" stroke="none" opacity="0.05" style="opacity: 0.05;">
		<title>12: undefined</title>
	</rect>
	<rect x="5" y="63" width="25" height="11" r="0" rx="0" ry="0" fill="#000088" stroke="none" opacity="0.05" style="opacity: 0.05;">
		<title>13: undefined</title>
	</rect>
	<rect x="5" y="52" width="25" height="11" r="0" rx="0" ry="0" fill="#000088" stroke="none" opacity="0.05" style="opacity: 0.05;">
		<title>14: undefined</title>
	</rect>
	<rect x="5" y="41" width="25" height="11" r="0" rx="0" ry="0" fill="#000088" stroke="none" opacity="0.05" style="opacity: 0.05;">
		<title>15: undefined</title>
	</rect>
	<rect x="82" y="30" width="11" height="11" r="0" rx="0" ry="0" fill="none" stroke="#000088" style=""/>
	<rect x="5" y="30" width="25" height="11" r="0" rx="0" ry="0" fill="#000088" stroke="none" opacity="0.15" style="opacity: 0.15;">
		<title>16: 1</title>
	</rect>
	<desc>Created with Rapha&#xEB;l 2.1.2</desc>
	<defs>
		<path stroke-linecap="round" d="M5,0 0,2.5 5,5z" id="raphael-marker-block"/>
		<marker id="raphael-marker-endblock33" markerHeight="3" markerWidth="3" orient="auto" refX="1.5" refY="1.5">
			<use xlink:href="#raphael-marker-block" transform="rotate(180 1.5 1.5) scale(0.6,0.6)" stroke-width="1.6667" fill="#999" stroke="none"/>
		</marker>
	</defs>
	<text x="162" y="10" text-anchor="middle" font="10px &quot;Arial&quot;" stroke="none" fill="#000000" font-family="Verdana, sans-serif" font-size="12px" style="text-anchor: middle; font-style: normal; font-variant: normal; font-weight: normal; font-size: 12px; line-height: normal; font-family: Verdana, sans-serif;">
		<tspan dy="10">Number of Occurrences</tspan>
	</text>
	<text x="-120" y="26" text-anchor="middle" font="10px &quot;Arial&quot;" stroke="none" fill="#000000" transform="matrix(0,-1,1,0,0,0)" font-family="Verdana, sans-serif" font-size="12px" style="text-anchor: middle; font-style: normal; font-variant: normal; font-weight: normal; font-size: 12px; line-height: normal; font-family: Verdana, sans-serif;">
		<tspan dy="26">(Actual - Predicted) Temperature</tspan>
	</text>
	<path fill="none" stroke="#999999" d="M82,30C82,30,82,318.80158741772175,82,358.49770404764786" stroke-width="3" marker-end="url(#raphael-marker-endblock33)" style=""/>
	<path fill="none" stroke="#999999" d="M82,30C82,30,82,20.398592948913574,82,14.50085365679115" stroke-width="3" marker-end="url(#raphael-marker-endblock33)" style=""/>
	<image x="50" y="39" width="30" height="15" preserveAspectRatio="none" xlink:href="images/15.png"/>
	<image x="50" y="94" width="30" height="15" preserveAspectRatio="none" xlink:href="images/10.png"/>
	<image x="50" y="149" width="30" height="15" preserveAspectRatio="none" xlink:href="images/5.png"/>
	<path fill="none" stroke="#999999" d="M81,211.5C81,211.5,158.7889941930771,211.5,178.50212309259223,211.5" stroke-width="3" marker-end="url(#raphael-marker-endblock33)" style=""/>
	<image x="1.5" y="196.5" width="32" height="32" preserveAspectRatio="none" xlink:href="images/blue_orb.png" opacity="0.7" style="opacity: 0.7;"/>
	<text x="17.5" y="211.5" text-anchor="middle" font="16px Verdana" stroke="none" fill="#ffffff" style="text-anchor: middle; font-style: normal; font-variant: normal; font-weight: normal; font-size: 16px; line-height: normal; font-family: Verdana;">
		<tspan dy="211.5">27</tspan>
	</text>
	<image x="50" y="204" width="30" height="15" preserveAspectRatio="none" xlink:href="images/0.png"/>
	<image x="50" y="259" width="30" height="15" preserveAspectRatio="none" xlink:href="images/-5.png"/>
	<image x="50" y="314" width="30" height="15" preserveAspectRatio="none" xlink:href="images/-10.png"/>
</svg>
